#!OML:ASF H:\Pregnant\Project 1\Capture day 1\Session 1\femalepreg.ASF
:FULLY-SPECIFIED
:DEGREES
550
root -8.46139 15.9904 -6.24514 199.572 10.8251 -178.998
lowerback -16.5634 0.508817 -10.3277
upperback -5.47687 3.55725 -4.15057
thorax 3.0967 2.21742 2.09529
lowerneck -28.6539 -0.993736 1.75399
upperneck 32.404 -3.25113 5.59946
head 16.6301 0.281329 1.60653
rclavicle -2.8128e-014 -1.43125e-014
rhumerus -10.7732 24.7658 -68.6046
rradius 59.7544
rwrist -47.667
rhand -27.1338 -52.8861
rfingers 7.12502
rthumb -0.54933 -82.8651
lclavicle -2.8128e-014 -1.43125e-014
lhumerus 11.4233 -46.7182 47.6164
lradius 60.38
lwrist 69.5263
lhand -36.8902 34.457
lfingers 7.12502
lthumb -9.96876 64.201
rfemur -52.2879 8.55796 14.7298
rtibia 48.1157
rfoot -12.7586 -17.9443
rtoes -3.19763
lfemur -30.4609 -6.37054 -18.497
ltibia 29.2842
lfoot -13.984 6.56443
ltoes -37.7566
551
root -8.44314 15.9962 -6.35158 199.693 10.8306 -179.104
lowerback -16.6854 0.462253 -10.4102
upperback -5.53338 3.53027 -4.09956
thorax 3.09556 2.21133 2.19369
lowerneck -28.7219 -1.00833 1.8111
upperneck 32.5368 -3.27585 5.53559
head 16.71 0.277954 1.56945
rclavicle -1.86858e-014 6.36111e-015
rhumerus -10.8533 24.6673 -68.5619
rradius 60.0435
rwrist -47.7151
rhand -27.1552 -53.0122
rfingers 7.12502
rthumb -0.569968 -82.9912
lclavicle -1.86858e-014 6.36111e-015
lhumerus 11.4736 -46.6564 47.5539
lradius 60.4392
lwrist 69.5553
lhand -36.8339 34.4078
lfingers 7.12502
lthumb -9.91444 64.1544
rfemur -52.6811 8.86504 14.1651
rtibia 46.4698
rfoot -12.6864 -17.9929
rtoes -3.25891
lfemur -29.9014 -6.36636 -18.6597
ltibia 28.8282
lfoot -14.1141 6.54139
ltoes -37.7646
552
root -8.42375 16.0016 -6.45806 199.83 10.828 -179.221
lowerback -16.8266 0.408541 -10.4795
upperback -5.59762 3.49753 -4.05814
thorax 3.0987 2.20365 2.27433
lowerneck -28.6971 -1.05011 1.81543
upperneck 32.6407 -3.31834 5.50311
head 16.7567 0.264353 1.5498
rclavicle 1.51076e-014 -1.43125e-014
rhumerus -10.9324 24.5708 -68.541
rradius 60.3312
rwrist -47.7688
rhand -27.1216 -53.2354
rfingers 7.12502
rthumb -0.537544 -83.2145
lclavicle 1.51076e-014 -1.43125e-014
lhumerus 11.5104 -46.5927 47.4858
lradius 60.4954
lwrist 69.5769
lhand -36.8009 34.354
lfingers 7.12502
lthumb -9.88256 64.102
rfemur -53.0997 9.20333 13.5505
rtibia 44.8533
rfoot -12.6225 -17.9946
rtoes -3.38686
lfemur -29.3475 -6.37218 -18.8239
ltibia 28.343
lfoot -14.2261 6.51644
ltoes -37.7918
553
root -8.40329 16.0066 -6.5646 199.984 10.8166 -179.349
lowerback -16.9884 0.348957 -10.5346
upperback -5.66871 3.46085 -4.02737
thorax 3.10764 2.19517 2.33594
lowerneck -28.6542 -1.09666 1.81584
upperneck 32.743 -3.36611 5.47721
head 16.799 0.249458 1.53251
rclavicle -2.47487e-014 7.4743e-014
rhumerus -11.0045 24.481 -68.538
rradius 60.6108
rwrist -47.8252
rhand -27.0863 -53.4642
rfingers 7.12502
rthumb -0.503475 -83.4434
lclavicle -2.47487e-014 7.4743e-014
lhumerus 11.544 -46.5268 47.4101
lradius 60.5434
lwrist 69.5876
lhand -36.7904 34.3017
lfingers 7.12502
lthumb -9.87248 64.0502
rfemur -53.5513 9.57385 12.878
rtibia 43.2783
rfoot -12.585 -17.9372
rtoes -3.54617
lfemur -28.7948 -6.38072 -18.991
ltibia 27.8166
lfoot -14.3179 6.47966
ltoes -37.8334
554
root -8.38162 16.0117 -6.67148 200.151 10.8036 -179.492
lowerback -17.1679 0.284375 -10.5852
upperback -5.74828 3.42271 -4.00665
thorax 3.11808 2.18755 2.38464
lowerneck -28.5469 -1.15926 1.78889
upperneck 32.8264 -3.42535 5.47099
head 16.8185 0.228909 1.52522
rclavicle -8.94531e-016 2.54444e-014
rhumerus -11.0779 24.4043 -68.5537
rradius 60.8831
rwrist -47.8794
rhand -27.0494 -53.6823
rfingers 7.12502
rthumb -0.467783 -83.6616
lclavicle -8.94531e-016 2.54444e-014
lhumerus 11.5664 -46.4648 47.3316
lradius 60.5853
lwrist 69.5895
lhand -36.7798 34.2706
lfingers 7.12502
lthumb -9.8622 64.0196
rfemur -54.0378 9.99337 12.1295
rtibia 41.7579
rfoot -12.5884 -17.8257
rtoes -3.71939
lfemur -28.229 -6.38688 -19.1666
ltibia 27.2364
lfoot -14.3848 6.42901
ltoes -37.892
555
root -8.35898 16.0167 -6.77866 200.321 10.7833 -179.649
lowerback -17.3541 0.217078 -10.6268
upperback -5.83005 3.38296 -3.99623
thorax 3.13115 2.17982 2.41736
lowerneck -28.48 -1.21148 1.78105
upperneck 32.9261 -3.48238 5.46868
head 16.8555 0.213768 1.51795
rclavicle 1.12313e-014 2.22639e-014
rhumerus -11.1407 24.3402 -68.5816
rradius 61.1424
rwrist -47.9281
rhand -27.0542 -53.8395
rfingers 7.12502
rthumb -0.47243 -83.8188
lclavicle 1.12313e-014 2.22639e-014
lhumerus 11.5913 -46.4041 47.245
lradius 60.6181
lwrist 69.5907
lhand -36.7804 34.2308
lfingers 7.12502
lthumb -9.86282 63.9798
rfemur -54.5525 10.4664 11.2964
rtibia 40.3037
rfoot -12.6299 -17.6855
rtoes -3.92549
lfemur -27.6382 -6.39803 -19.3503
ltibia 26.5961
lfoot -14.4222 6.36275
ltoes -37.9716
556
root -8.33541 16.0216 -6.88611 200.491 10.7661 -179.82
lowerback -17.5471 0.150244 -10.6635
upperback -5.91545 3.34651 -3.99648
thorax 3.14453 2.17465 2.43666
lowerneck -28.4673 -1.24402 1.82246
upperneck 33.0379 -3.53589 5.46056
head 16.9104 0.206792 1.5013
rclavicle -9.69075e-015 -4.77083e-014
rhumerus -11.2006 24.287 -68.6267
rradius 61.3865
rwrist -47.9564
rhand -27.0937 -53.9382
rfingers 7.12502
rthumb -0.510545 -83.9173
lclavicle -9.69075e-015 -4.77083e-014
lhumerus 11.6088 -46.3421 47.1591
lradius 60.6399
lwrist 69.5811
lhand -36.7336 34.2083
lfingers 7.12502
lthumb -9.81759 63.9594
rfemur -55.095 11.0123 10.3651
rtibia 38.9246
rfoot -12.6917 -17.5511
rtoes -4.15
lfemur -27.0126 -6.40683 -19.5442
ltibia 25.8889
lfoot -14.4282 6.27788
ltoes -38.0696
557
root -8.311 16.0269 -6.99359 200.659 10.7497 -180.002
lowerback -17.7426 0.0821437 -10.6965
upperback -6.00255 3.30932 -3.99937
thorax 3.15774 2.16959 2.45091
lowerneck -28.4942 -1.26032 1.89808
upperneck 33.1614 -3.5794 5.43697
head 16.9792 0.206706 1.47468
rclavicle 1.41137e-014 2.06736e-014
rhumerus -11.2549 24.25 -68.681
rradius 61.6182
rwrist -47.9638
rhand -27.1695 -53.9961
rfingers 7.12502
rthumb -0.583842 -83.975
lclavicle 1.41137e-014 2.06736e-014
lhumerus 11.6031 -46.2649 47.097
lradius 60.6492
lwrist 69.5608
lhand -36.6806 34.1694
lfingers 7.12502
lthumb -9.76646 63.923
rfemur -55.6673 11.6692 9.30311
rtibia 37.6273
rfoot -12.7626 -17.4912
rtoes -4.40496
lfemur -26.3514 -6.41678 -19.7445
ltibia 25.1148
lfoot -14.4009 6.17197
ltoes -38.1841
558
root -8.28571 16.0326 -7.10121 200.82 10.7338 -180.187
lowerback -17.9387 0.0160887 -10.7188
upperback -6.08942 3.27325 -4.00154
thorax 3.17185 2.16503 2.46016
lowerneck -28.522 -1.28374 1.98671
upperneck 33.2982 -3.63017 5.38701
head 17.0542 0.202084 1.43276
rclavicle 2.38542e-015 -1.1291e-013
rhumerus -11.3047 24.2296 -68.7426
rradius 61.8365
rwrist -47.9515
rhand -27.2622 -54.0354
rfingers 7.12502
rthumb -0.673337 -84.0141
lclavicle 2.38542e-015 -1.1291e-013
lhumerus 11.5777 -46.1756 47.0584
lradius 60.6456
lwrist 69.5386
lhand -36.6268 34.1593
lfingers 7.12502
lthumb -9.71458 63.9152
rfemur -56.269 12.4771 8.08476
rtibia 36.4187
rfoot -12.8198 -17.5897
rtoes -4.65925
lfemur -25.65 -6.4273 -19.9428
ltibia 24.2782
lfoot -14.3394 6.04642
ltoes -38.3183
559
root -8.25941 16.0384 -7.20913 200.972 10.7202 -180.37
lowerback -18.1342 -0.048823 -10.7333
upperback -6.17755 3.23659 -3.99716
thorax 3.18409 2.16023 2.4717
lowerneck -28.515 -1.30752 2.06807
upperneck 33.4179 -3.6778 5.34568
head 17.1128 0.19841 1.39579
rclavicle -1.6847e-014 3.18055e-014
rhumerus -11.3554 24.235 -68.8088
rradius 62.0432
rwrist -47.9186
rhand -27.3431 -54.0868
rfingers 7.12502
rthumb -0.751462 -84.0652
lclavicle -1.6847e-014 3.18055e-014
lhumerus 11.5178 -46.072 47.0588
lradius 60.6279
lwrist 69.5121
lhand -36.5722 34.1626
lfingers 7.12502
lthumb -9.66195 63.921
rfemur -56.9052 13.4273 6.71079
rtibia 35.3075
rfoot -12.8679 -17.8711
rtoes -4.85225
lfemur -24.9083 -6.43315 -20.1373
ltibia 23.3872
lfoot -14.2464 5.90298
ltoes -38.4841
